<svg xmlns="http://www.w3.org/2000/svg" xml:space="preserve" width="512" height="512" style="enable-background:new 0 0 512 512"><path d="M256 512c-109.166 0-197.979-88.993-197.979-198.381 0-45.538 15.753-89.935 44.383-125.177.189-.306.397-.604.622-.892L245.545 5.412A14.012 14.012 0 0 1 256.651 0h.032a14.01 14.01 0 0 1 11.114 5.463l60.405 77.947c3.383 4.366 2.587 10.647-1.779 14.03-4.366 3.382-10.646 2.586-14.029-1.779l-55.766-71.96-137 175.087c-.264.448-.564.878-.901 1.287-26.25 31.841-40.706 72.166-40.706 113.544C78.021 411.979 157.862 492 256 492s177.979-80.021 177.979-178.381c0-40.938-14.19-80.933-39.957-112.615a9.326 9.326 0 0 1-.414-.546l-32.19-41.539c-3.383-4.365-2.587-10.647 1.779-14.03 4.362-3.383 10.646-2.587 14.029 1.779l32.471 41.9.134.176c28.473 35.18 44.148 79.508 44.148 124.874C453.979 423.007 365.166 512 256 512z" /><path d="M204.99 394.002a9.957 9.957 0 0 1-4.977-1.334c-4.787-2.754-6.436-8.867-3.682-13.654l98-170.367c2.753-4.788 8.866-6.436 13.654-3.682 4.787 2.754 6.436 8.867 3.682 13.655l-98 170.367a9.995 9.995 0 0 1-8.677 5.015zM316.558 394c-21.216 0-38.477-17.261-38.477-38.478s17.261-38.478 38.477-38.478c21.217 0 38.478 17.261 38.478 38.478S337.774 394 316.558 394zm0-56.955c-10.188 0-18.477 8.289-18.477 18.478S306.369 374 316.558 374s18.478-8.289 18.478-18.478-8.29-18.477-18.478-18.477zm-121.116-64.097c-21.217 0-38.478-17.261-38.478-38.477 0-21.217 17.261-38.478 38.478-38.478 21.216 0 38.477 17.261 38.477 38.478 0 21.217-17.261 38.477-38.477 38.477zm0-56.954c-10.188 0-18.478 8.289-18.478 18.478s8.289 18.477 18.478 18.477 18.477-8.289 18.477-18.477-8.288-18.478-18.477-18.478zM345.04 131c-2.641 0-5.221-1.07-7.08-2.93a10.066 10.066 0 0 1-2.92-7.07c0-2.63 1.06-5.21 2.92-7.07a10.078 10.078 0 0 1 7.08-2.93c2.63 0 5.2 1.07 7.069 2.93a10.077 10.077 0 0 1 2.931 7.07c0 2.63-1.07 5.21-2.931 7.07a10.09 10.09 0 0 1-7.069 2.93z" /></svg>