<svg xmlns="http://www.w3.org/2000/svg" xml:space="preserve" width="512" height="512" style="enable-background:new 0 0 512 512"><g data-name="2 Resilience"><path d="M50.22 370.88A19.19 19.19 0 0 1 42 334.34c35.28-16.69 109.82-44.74 212.55-45H256c103.39 0 178.38 28.16 214 45A19.19 19.19 0 0 1 453.58 369C420.9 353.57 351.89 327.72 256 327.72h-1.36C159.38 328 90.81 353.7 58.42 369a19.2 19.2 0 0 1-8.2 1.88zM256 222.66h-1.44c-102.74-.26-177.28-28.31-212.56-45A19.19 19.19 0 0 1 58.42 143c32.39 15.33 101 41.07 196.24 41.31 96.57.26 166.09-25.78 198.92-41.31A19.19 19.19 0 1 1 470 177.66c-35.6 16.84-110.61 45-214 45zM50.21 275.19a19.19 19.19 0 0 1 0-38.38h411.58a19.19 19.19 0 0 1 0 38.38z" data-original="#000000"/><path d="M246.47 157.59a11 11 0 0 0 19.06 0l25-43.22a11 11 0 0 0-9.53-16.5h-5.77V77.46a19.19 19.19 0 0 0-38.38 0v20.41H231a11 11 0 0 0-9.52 16.5zM256 50.42a19.19 19.19 0 0 0 19.19-19.19v-1a19.19 19.19 0 0 0-38.38 0v1A19.19 19.19 0 0 0 256 50.42zm9.53 305.91a11 11 0 0 0-19.06 0l-24.95 43.22a11 11 0 0 0 9.52 16.5h5.77v20.41a19.19 19.19 0 0 0 38.38 0v-20.41H281a11 11 0 0 0 9.52-16.5zM256 461.58a19.19 19.19 0 0 0-19.19 19.19v1a19.19 19.19 0 0 0 38.38 0v-1A19.19 19.19 0 0 0 256 461.58z" data-original="#000000"/></g></svg>