<?xml version="1.0" encoding="UTF-8"?>
<!-- (c) ammap.com | SVG weather icons -->
<svg width="56" height="48" version="1.1" xmlns="http://www.w3.org/2000/svg">
   <defs>
      <filter id="blur" x="-.24684" y="-.26897" width="1.4937" height="1.6759">
         <feGaussianBlur in="SourceAlpha" stdDeviation="3" />
         <feOffset dx="0" dy="4" result="offsetblur" />
         <feComponentTransfer>
            <feFuncA slope="0.05" type="linear" />
         </feComponentTransfer>
         <feMerge>
            <feMergeNode />
            <feMergeNode in="SourceGraphic" />
         </feMerge>
      </filter>

   </defs>
   <g transform="translate(16,-2)" filter="url(#blur)">
      <g transform="matrix(.8 0 0 .8 16 4)">
         <g class="am-weather-moon-star-1"
            style="-moz-animation-delay:3s;-moz-animation-duration:5s;-moz-animation-iteration-count:1;-moz-animation-name:am-weather-moon-star-1;-moz-animation-timing-function:linear;-ms-animation-delay:3s;-ms-animation-duration:5s;-ms-animation-iteration-count:1;-ms-animation-name:am-weather-moon-star-1;-ms-animation-timing-function:linear;-webkit-animation-delay:3s;-webkit-animation-duration:5s;-webkit-animation-iteration-count:1;-webkit-animation-name:am-weather-moon-star-1;-webkit-animation-timing-function:linear">
            <polygon points="4 4 3.3 5.2 2.7 4 1.5 3.3 2.7 2.7 3.3 1.5 4 2.7 5.2 3.3" fill="#ffa500"
               stroke-miterlimit="10" />
         </g>
         <g class="am-weather-moon-star-2"
            style="-moz-animation-delay:5s;-moz-animation-duration:4s;-moz-animation-iteration-count:1;-moz-animation-name:am-weather-moon-star-2;-moz-animation-timing-function:linear;-ms-animation-delay:5s;-ms-animation-duration:4s;-ms-animation-iteration-count:1;-ms-animation-name:am-weather-moon-star-2;-ms-animation-timing-function:linear;-webkit-animation-delay:5s;-webkit-animation-duration:4s;-webkit-animation-iteration-count:1;-webkit-animation-name:am-weather-moon-star-2;-webkit-animation-timing-function:linear">
            <polygon transform="translate(20,10)" points="4 4 3.3 5.2 2.7 4 1.5 3.3 2.7 2.7 3.3 1.5 4 2.7 5.2 3.3"
               fill="#ffa500" stroke-miterlimit="10" />
         </g>
         <g class="am-weather-moon"
            style="-moz-animation-duration:6s;-moz-animation-iteration-count:infinite;-moz-animation-name:am-weather-moon;-moz-animation-timing-function:linear;-moz-transform-origin:12.5px 15.15px 0;-ms-animation-duration:6s;-ms-animation-iteration-count:infinite;-ms-animation-name:am-weather-moon;-ms-animation-timing-function:linear;-ms-transform-origin:12.5px 15.15px 0;-webkit-animation-duration:6s;-webkit-animation-iteration-count:infinite;-webkit-animation-name:am-weather-moon;-webkit-animation-timing-function:linear;-webkit-transform-origin:12.5px 15.15px 0">
            <path
               d="m14.5 13.2c0-3.7 2-6.9 5-8.7-1.5-0.9-3.2-1.3-5-1.3-5.5 0-10 4.5-10 10s4.5 10 10 10c1.8 0 3.5-0.5 5-1.3-3-1.7-5-5-5-8.7z"
               fill="#ffa500" stroke="#ffa500" stroke-linejoin="round" stroke-width="2" />
         </g>
      </g>
      <g class="am-weather-cloud-2"
         style="-moz-animation-duration:3s;-moz-animation-iteration-count:infinite;-moz-animation-name:am-weather-cloud-2;-moz-animation-timing-function:linear;-webkit-animation-duration:3s;-webkit-animation-iteration-count:infinite;-webkit-animation-name:am-weather-cloud-2;-webkit-animation-timing-function:linear">
         <path transform="translate(-20,-11)"
            d="m47.7 35.4c0-4.6-3.7-8.2-8.2-8.2-1 0-1.9 0.2-2.8 0.5-0.3-3.4-3.1-6.2-6.6-6.2-3.7 0-6.7 3-6.7 6.7 0 0.8 0.2 1.6 0.4 2.3-0.3-0.1-0.7-0.1-1-0.1-3.7 0-6.7 3-6.7 6.7 0 3.6 2.9 6.6 6.5 6.7h17.2c4.4-0.5 7.9-4 7.9-8.4z"
            fill="#57a0ee" stroke="#fff" stroke-linejoin="round" stroke-width="1.2" />
      </g>
      <g class="am-weather-snow-1"
         style="-moz-animation-duration:2s;-moz-animation-iteration-count:infinite;-moz-animation-name:am-weather-snow;-moz-animation-timing-function:linear;-ms-animation-duration:2s;-ms-animation-iteration-count:infinite;-ms-animation-name:am-weather-snow;-ms-animation-timing-function:linear;-webkit-animation-duration:2s;-webkit-animation-iteration-count:infinite;-webkit-animation-name:am-weather-snow;-webkit-animation-timing-function:linear">
         <g transform="translate(3,28)" fill="none" stroke="#57a0ee" stroke-linecap="round">
            <line transform="translate(0,9)" y1="-2.5" y2="2.5" stroke-width="1.2" />
            <line transform="rotate(45,-10.864,4.5)" y1="-2.5" y2="2.5" />
            <line transform="rotate(90,-4.5,4.5)" y1="-2.5" y2="2.5" />
            <line transform="rotate(135,-1.864,4.5)" y1="-2.5" y2="2.5" />
         </g>
      </g>
      <g class="am-weather-snow-2"
         style="-moz-animation-delay:1.2s;-moz-animation-duration:2s;-moz-animation-iteration-count:infinite;-moz-animation-name:am-weather-snow;-moz-animation-timing-function:linear;-ms-animation-delay:1.2s;-ms-animation-duration:2s;-ms-animation-iteration-count:infinite;-ms-animation-name:am-weather-snow;-ms-animation-timing-function:linear;-webkit-animation-delay:1.2s;-webkit-animation-duration:2s;-webkit-animation-iteration-count:infinite;-webkit-animation-name:am-weather-snow;-webkit-animation-timing-function:linear">
         <g transform="translate(11,28)" fill="none" stroke="#57a0ee" stroke-linecap="round">
            <line transform="translate(0,9)" y1="-2.5" y2="2.5" stroke-width="1.2" />
            <line transform="rotate(45,-10.864,4.5)" y1="-2.5" y2="2.5" />
            <line transform="rotate(90,-4.5,4.5)" y1="-2.5" y2="2.5" />
            <line transform="rotate(135,-1.864,4.5)" y1="-2.5" y2="2.5" />
         </g>
      </g>
      <g class="am-weather-snow-3"
         style="-moz-animation-duration:2s;-moz-animation-iteration-count:infinite;-moz-animation-name:am-weather-snow-reverse;-moz-animation-timing-function:linear;-ms-animation-duration:2s;-ms-animation-iteration-count:infinite;-ms-animation-name:am-weather-snow-reverse;-ms-animation-timing-function:linear;-webkit-animation-duration:2s;-webkit-animation-iteration-count:infinite;-webkit-animation-name:am-weather-snow-reverse;-webkit-animation-timing-function:linear">
         <g transform="translate(20,28)" fill="none" stroke="#57a0ee" stroke-linecap="round">
            <line transform="translate(0,9)" y1="-2.5" y2="2.5" stroke-width="1.2" />
            <line transform="rotate(45,-10.864,4.5)" y1="-2.5" y2="2.5" />
            <line transform="rotate(90,-4.5,4.5)" y1="-2.5" y2="2.5" />
            <line transform="rotate(135,-1.864,4.5)" y1="-2.5" y2="2.5" />
         </g>
      </g>
   </g>
</svg>