<svg xmlns="http://www.w3.org/2000/svg" xml:space="preserve" width="512" height="512" style="enable-background:new 0 0 512 512"><path d="M255.7 202.5c-5.9 0-10.7 4.8-10.7 10.7v25.6c0 5.9 4.8 10.7 10.7 10.7s10.7-4.8 10.7-10.7v-25.6c0-5.9-4.8-10.7-10.7-10.7zm-99.1 65.9c2.9 5.1 9.5 6.8 14.6 3.9s6.8-9.5 3.9-14.6l-12.9-22.3c-2.9-5.1-9.5-6.9-14.6-3.9-5.1 2.9-6.8 9.5-3.9 14.6zm-84.2 56.8 22.7 13.1c5.1 3 11.6 1.2 14.6-3.9 2.9-5.1 1.2-11.6-3.9-14.6l-22.7-13.1c-5.1-2.9-11.6-1.2-14.6 3.9-2.9 5.2-1.2 11.7 3.9 14.6zm343.9 13.1 20.7-11.9c5.1-2.9 6.9-9.5 3.9-14.6-2.9-5.1-9.4-6.9-14.6-3.9l-20.7 11.9c-5.1 2.9-6.9 9.5-3.9 14.6s9.5 6.8 14.6 3.9zm-76-65.9c5.1 3 11.6 1.2 14.6-3.9l11.7-20.3c2.9-5.1 1.2-11.6-3.9-14.6-5.1-2.9-11.6-1.2-14.6 3.9l-11.7 20.3c-3 5.1-1.2 11.6 3.9 14.6z" /><path d="M501.3 374h-98c-19.1-65.3-78.5-110.3-147.5-110.3s-128.4 45-147.5 110.3H10.7C4.8 374 0 378.8 0 384.7s4.8 10.7 10.7 10.7h490.7c5.9 0 10.7-4.8 10.7-10.7s-4.9-10.7-10.8-10.7zm-370.8 0c18.2-53 68-89 125.3-89s107 36 125.3 89zm304 47.7h-357c-5.9 0-10.7 4.8-10.7 10.7s4.8 10.7 10.7 10.7h357.1c5.9 0 10.7-4.8 10.7-10.7-.1-6-4.9-10.7-10.8-10.7zm-84 47.6H161.4c-5.9 0-10.7 4.8-10.7 10.7s4.8 10.7 10.7 10.7h189.1c5.9 0 10.7-4.8 10.7-10.7s-4.8-10.7-10.7-10.7zM248.2 129.1c4.1 4.4 11.1 4.5 15.4.3l30.3-30.3c4.2-4.2 4.2-10.9 0-15.1s-10.9-4.2-15.1 0l-12.1 12.1V32c0-5.9-4.8-10.7-10.7-10.7s-10.7 4.8-10.7 10.7v64.1L233.2 84c-4.2-4.2-10.9-4.2-15.1 0s-4.1 10.9 0 15.1z" /></svg>