<svg xmlns="http://www.w3.org/2000/svg" xml:space="preserve" width="512" height="512" style="enable-background:new 0 0 512 512"><path d="M310.3 310.1V49.6C310.3 22.2 288 0 260.7 0c-27.4 0-49.6 22.3-49.6 49.6v260.5c-35.6 18.6-57.9 55.7-57.4 96.2.7 56 46.7 103.3 102.6 105.6 1.5.1 3 .1 4.5.1 27.8 0 54-10.5 74.1-29.8 21.2-20.4 32.9-47.8 32.9-77.1 0-40.2-22.3-76.7-57.5-95zm9.8 156.7c-17 16.3-39.3 24.8-63 23.8-44.8-1.8-81.6-39.7-82.2-84.5-.4-34.4 19.6-65.6 51.1-79.5 3.9-1.7 6.3-5.5 6.3-9.8V49.6c0-15.6 12.7-28.3 28.3-28.3s28.3 12.7 28.3 28.3v267.2c0 4.2 2.5 8.1 6.4 9.8 31 13.6 51.1 44.4 51.1 78.4.1 23.5-9.3 45.5-26.3 61.8z" /><path d="M271.4 338.3V162.6c0-5.9-4.8-10.7-10.7-10.7s-10.7 4.8-10.7 10.7v175.7c-32.2 5.1-57 33.1-57 66.7 0 37.3 30.3 67.6 67.7 67.6s67.7-30.3 67.7-67.6c0-33.6-24.7-61.6-57-66.7zm-10.6 113c-25.5 0-46.3-20.7-46.3-46.2s20.8-46.3 46.3-46.3 46.3 20.8 46.3 46.3c0 25.4-20.8 46.2-46.3 46.2zM154.9 83.2h26.7c5.9 0 10.7-4.8 10.7-10.7s-4.8-10.7-10.7-10.7h-26.7c-5.9 0-10.7 4.8-10.7 10.7s4.8 10.7 10.7 10.7zm26.7 23.7h-13.4c-5.9 0-10.7 4.8-10.7 10.7s4.8 10.7 10.7 10.7h13.4c5.9 0 10.7-4.8 10.7-10.7s-4.8-10.7-10.7-10.7zm-26.7 66.3h26.7c5.9 0 10.7-4.8 10.7-10.7s-4.8-10.7-10.7-10.7h-26.7c-5.9 0-10.7 4.8-10.7 10.7 0 6 4.8 10.7 10.7 10.7zm26.7 23.7h-13.4c-5.9 0-10.7 4.8-10.7 10.7s4.8 10.7 10.7 10.7h13.4c5.9 0 10.7-4.8 10.7-10.7s-4.8-10.7-10.7-10.7zm0 66.4c5.9 0 10.7-4.8 10.7-10.7s-4.8-10.7-10.7-10.7h-26.7c-5.9 0-10.7 4.8-10.7 10.7s4.8 10.7 10.7 10.7h26.7z" /></svg>