<?xml version="1.0" encoding="UTF-8"?>
<!-- (c) ammap.com | SVG weather icons -->
<svg width="56" height="48" version="1.1" xmlns="http://www.w3.org/2000/svg">
 <defs>
  <filter id="blur" x="-.24684" y="-.19575" width="1.4937" height="1.4959">
   <feGaussianBlur in="SourceAlpha" stdDeviation="3"/>
   <feOffset dx="0" dy="4" result="offsetblur"/>
   <feComponentTransfer>
    <feFuncA slope="0.05" type="linear"/>
   </feComponentTransfer>
   <feMerge>
    <feMergeNode/>
    <feMergeNode in="SourceGraphic"/>
   </feMerge>
  </filter>

 </defs>
 <g id="thunder" transform="translate(-4,-12)" filter="url(#blur)">
  <g transform="translate(20,10)">
   <g class="am-weather-cloud-1" style="-moz-animation-duration:7s;-moz-animation-iteration-count:infinite;-moz-animation-name:am-weather-cloud-1;-moz-animation-timing-function:linear;-webkit-animation-duration:7s;-webkit-animation-iteration-count:infinite;-webkit-animation-name:am-weather-cloud-1;-webkit-animation-timing-function:linear">
    <path transform="matrix(.6 0 0 .6 -10 -6)" d="m47.7 35.4c0-4.6-3.7-8.2-8.2-8.2-1 0-1.9 0.2-2.8 0.5-0.3-3.4-3.1-6.2-6.6-6.2-3.7 0-6.7 3-6.7 6.7 0 0.8 0.2 1.6 0.4 2.3-0.3-0.1-0.7-0.1-1-0.1-3.7 0-6.7 3-6.7 6.7 0 3.6 2.9 6.6 6.5 6.7h17.2c4.4-0.5 7.9-4 7.9-8.4z" fill="#91c0f8" stroke="#fff" stroke-linejoin="round" stroke-width="1.2"/>
   </g>
   <path transform="translate(-20,-11)" d="m47.7 35.4c0-4.6-3.7-8.2-8.2-8.2-1 0-1.9 0.2-2.8 0.5-0.3-3.4-3.1-6.2-6.6-6.2-3.7 0-6.7 3-6.7 6.7 0 0.8 0.2 1.6 0.4 2.3-0.3-0.1-0.7-0.1-1-0.1-3.7 0-6.7 3-6.7 6.7 0 3.6 2.9 6.6 6.5 6.7h17.2c4.4-0.5 7.9-4 7.9-8.4z" fill="#57a0ee" stroke="#fff" stroke-linejoin="round" stroke-width="1.2"/>
   <g transform="matrix(1.2,0,0,1.2,-4,28)">
    <polygon class="am-weather-stroke" points="11.1 6.9 14.3 -2.9 20.5 -2.9 16.4 4.3 20.3 4.3 11.5 14.6 14.9 6.9" fill="#ffa500" stroke="#fff" style="-moz-animation-duration:1.11s;-moz-animation-iteration-count:infinite;-moz-animation-name:am-weather-stroke;-moz-animation-timing-function:linear;-webkit-animation-duration:1.11s;-webkit-animation-iteration-count:infinite;-webkit-animation-name:am-weather-stroke;-webkit-animation-timing-function:linear"/>
   </g>
  </g>
 </g>
</svg>
