<svg xmlns="http://www.w3.org/2000/svg" xml:space="preserve" width="512" height="512" style="enable-background:new 0 0 512 512"><path d="M512 177.333C512 231.738 467.738 276 413.333 276H100c-11.046 0-20-8.954-20-20s8.954-20 20-20h313.333C445.682 236 472 209.682 472 177.333s-26.318-58.667-58.667-58.667-58.667 26.318-58.667 58.667c0 11.046-8.954 20-20 20s-20-8.954-20-20c0-54.405 44.262-98.667 98.667-98.667 54.405.001 98.667 44.262 98.667 98.667zm-492 20h170c54.405 0 98.667-44.262 98.667-98.667C288.667 44.262 244.405 0 190 0S91.333 44.262 91.333 98.667c0 11.046 8.954 20 20 20s20-8.954 20-20C131.333 66.318 157.651 40 190 40s58.667 26.318 58.667 58.667-26.318 58.667-58.667 58.667H20c-11.046 0-20 8.954-20 20s8.954 19.999 20 19.999zm314.667 117.334H20c-11.046 0-20 8.954-20 20s8.954 20 20 20h314.667c32.349 0 58.667 26.318 58.667 58.667s-26.318 58.667-58.667 58.667C302.318 472 276 445.682 276 413.333c0-11.046-8.954-20-20-20s-20 8.954-20 20C236 467.738 280.262 512 334.667 512s98.667-44.262 98.667-98.667c-.001-54.405-44.262-98.666-98.667-98.666z" /></svg>